/* XPM */
static char *_ee82e230b134fbfceb1e59590c34130VHJUWbuZucUEq4UH[] = {
/* columns rows colors chars-per-pixel */
"32 32 203 2 ",
"   c #080604",
".  c #120E06",
"X  c #171308",
"o  c #1A160B",
"O  c #1B1816",
"+  c #211D14",
"@  c #241F1A",
"#  c #2E230B",
"$  c #35280F",
"%  c #2B2217",
"&  c #27231A",
"*  c #2B251C",
"=  c #2E2A1D",
"-  c #372D14",
";  c #342C1C",
":  c #3A2D18",
">  c #38311B",
",  c #3C351D",
"<  c #2E2B25",
"1  c #332B22",
"2  c #392E20",
"3  c #3C3423",
"4  c #3E3925",
"5  c #34312A",
"6  c #402F0F",
"7  c #433514",
"8  c #4A3616",
"9  c #4C3A13",
"0  c #433619",
"q  c #473A19",
"w  c #493C1C",
"e  c #423623",
"r  c #433B24",
"t  c #4B3F27",
"y  c #433D2A",
"u  c #493F29",
"i  c #53411B",
"p  c #5A4719",
"a  c #644C17",
"s  c #634D1C",
"d  c #67501D",
"f  c #6B521B",
"g  c #7B5D1A",
"h  c #4B4224",
"j  c #464129",
"k  c #4B432A",
"l  c #534624",
"z  c #554925",
"x  c #5B4C23",
"c  c #51452A",
"v  c #544A2C",
"b  c #5C4E29",
"n  c #5C522D",
"m  c #4C4436",
"M  c #504B31",
"N  c #584F3C",
"B  c #5D5433",
"V  c #654E22",
"C  c #645424",
"Z  c #6A5522",
"A  c #61522A",
"S  c #67592B",
"D  c #6C5B2A",
"F  c #745C25",
"G  c #715E2A",
"H  c #645937",
"J  c #6B5D33",
"K  c #635B3C",
"L  c #746226",
"P  c #7A6424",
"I  c #74632B",
"U  c #7B6629",
"Y  c #7D692A",
"T  c #69613B",
"R  c #746532",
"E  c #77693C",
"W  c #484542",
"Q  c #5F5644",
"!  c #635A42",
"~  c #635D4B",
"^  c #685E4C",
"/  c #675E50",
"(  c #6A6248",
")  c #746A45",
"_  c #776A44",
"`  c #786D43",
"'  c #6B6450",
"]  c #766F5D",
"[  c #7A7158",
"{  c #825B19",
"}  c #8B641A",
"|  c #8C6519",
" . c #926618",
".. c #9A6B19",
"X. c #A2761B",
"o. c #826525",
"O. c #816A27",
"+. c #8C6C24",
"@. c #876E2B",
"#. c #916E22",
"$. c #89722C",
"%. c #997322",
"&. c #90742A",
"*. c #997A2B",
"=. c #816D32",
"-. c #816E39",
";. c #887439",
":. c #937C39",
">. c #A77A21",
",. c #AB7D21",
"<. c #B17F23",
"1. c #827244",
"2. c #83754B",
"3. c #8A7B48",
"4. c #8A794D",
"5. c #9B8333",
"6. c #A78329",
"7. c #B48525",
"8. c #B68829",
"9. c #B48A2A",
"0. c #BB8D29",
"q. c #BD912B",
"w. c #AC8E33",
"e. c #A58B3A",
"r. c #B78F30",
"t. c #AF9337",
"y. c #AC913B",
"u. c #B59434",
"i. c #B99837",
"p. c #B79A3C",
"a. c #BC9D3C",
"s. c #BDA03E",
"d. c #C2932B",
"f. c #C79A2F",
"g. c #C29630",
"h. c #C99D31",
"j. c #C7A136",
"k. c #CEA233",
"l. c #C5A43C",
"z. c #C8A83C",
"x. c #CDAC3D",
"c. c #D0A535",
"v. c #D4AA36",
"b. c #D5AE38",
"n. c #D5B13B",
"m. c #DCB53A",
"M. c #DEB93C",
"N. c #E4BD3D",
"B. c #E8C13D",
"V. c #968349",
"C. c #8E835B",
"Z. c #988A58",
"A. c #B19748",
"S. c #AD9A56",
"D. c #BBA144",
"F. c #BCA24F",
"G. c #998D63",
"H. c #AA9B6B",
"J. c #B2A26C",
"K. c #B1A67C",
"L. c #B3A87E",
"P. c #C3A442",
"I. c #CCAE46",
"U. c #D3AF43",
"Y. c #D5B344",
"T. c #DAB645",
"R. c #DCBA43",
"E. c #DAB84B",
"W. c #CDB255",
"Q. c #E1BD44",
"!. c #E4C145",
"~. c #EDC642",
"^. c #E6C24A",
"/. c #ECC549",
"(. c #EFC94A",
"). c #F3CC46",
"_. c #F3CC4A",
"`. c #F2CD4E",
"'. c #F9CF49",
"]. c #B2AA82",
"[. c #B8AE87",
"{. c #BDB385",
"}. c #BEB38B",
"|. c #CBBB85",
" X c #C8BC95",
".X c #CFC59B",
"XX c #D2C493",
"oX c #D1C69F",
"OX c #D3CAA3",
"+X c #D6D1AE",
"@X c #E2D4A7",
"#X c #E0DBBF",
"$X c #E1DBC1",
"%X c #E9E4CB",
"&X c #EBE7D3",
"*X c #ECE8D1",
"=X c #F2EBD4",
"-X c #F2EDDB",
";X c #F3F1DD",
":X c #F6F3E2",
">X c #F8F6EA",
",X c #F9F6EA",
"<X c #FEFFFE",
/* pixels */
"<X<X<X<X<X<X<X<X<X<X;XOX{.C.` 2.4.E 1.L.OX;X<X<X<X<X<X<X<X<X<X<X",
"<X<X<X<X<X<X<X<X*X].E M J ' W ~ ~ N K r j 2.L.*X<X<X<X<X<X<X<X<X",
"<X<X<X<X<X<X,X}._ , % m Q [ 4.] ' ! v ; r k 3 H }.,X<X<X<X<X<X<X",
"<X<X<X<X<X%XC.n v h e A H =.4.B A V.4.x l 0 2 3 c G.%X<X<X<X<X<X",
"<X<X<X<X$XE 4 4 q q s &.u.b.N.B.!._./.E.A.A 6 0 T 4 ` #X<X<X<X<X",
"<X<X<X%XK e r 0 p f 6.v.b.M.B.).)._._._.`.Y.=.9 , j = ` #X<X<X<X",
"<X<X,XZ.% ; 8 a %.q.f.k.b.M.B.'.).)._.)._._.(.P.a - 5 < C.:X<X<X",
"<X<X[.h y 7 a %.0.d.f.c.b.M.B.B.).)._.(._._._._.n.d > < = ].<X<X",
"<X%XH e - a | 7.0.d.h.c.b.M.B.B.).)._._._.(.(._._.l.p ; O B %X<X",
"<XK.r @ i a X.0.0.d.h.c.b.M.B.B.)._.'._._._._._._._.O.$ & & K.<X",
"-X` r q f | X.7.0.d.h.c.m.b.s.$.$.=.Y 5.Q._._._._._.x.d : O K -X",
".X4 > s { X.X.7.0.d.h.k.&., + & 5 m * . p ^._._.(._.'.w.8 + 3 oX",
"K.> # d | X.7.7.0.d.r.9 . , 5.I.Q.^.E.R X Y._._._._._.Y.p @ ; K.",
"E 2 h O.| X.X.7.0.q.9 . P n.B.).`.).s., - R._._._._._./.@.w k ` ",
"S & n } ..X.6.7.0.%.X P m.B.B.R.t.D o > D.(._._._.(._._.*.w K R ",
"S = C - | X.6.7.d.a . 6.w.P C > < m 3.E._._._.(._._._.R.7 q M I ",
"S * Z 9  .X.,.7.q.g   X o o r E F.^.`._.'.Y.y.T._._._.Q.i q 4 D ",
"C o S +...X.,.8.q.7.#   x u.Q.'.'.~.R.y.D x t.(._._._._.5.l ; D ",
"2.k A @. .X.,.,.7.d.*.$ . , I $.=.v + ; R Y._.^.^._._.^.@.t 1 2.",
"{.B k L | X.>.P &.i.c.i.Y p 4 j N _ :.Y._._.'.P.y.E.'.Y.V : y {.",
"+XB 1 G | X.,.#.o.*.c.v.m.M.R.!.^.`.'._._./.P.e.p.T.'.e.z k K +X",
",X2.4 x F { <.8.*.g 9.v.n.N.~.)._._._._.(.P.:.P./.'.a.Z t r 3.>X",
"<X Xj B D f ,.0.9.o.U g.j.B.~.)._._._./.D.:.y.^._._.@.w B n  X<X",
"<X-X_ 4 h L | 0.q.9.u.y.s.M.Q.~.!.!.P.5.e.I./._._.i.V k M 4.-X<X",
"<X<X XB y J F #.q.h.k.j.s.x.D.s.:.e.e.@.Y._._._.s.Z z 4 S .X<X<X",
"<X<X,XH.u * A P +.q.k.v.m.m.z.z.l.P.Q.U./._.^.u.Z z r h J.>X<X<X",
"<X<X<X&X3.r u c G f >.v.M.B.~.).'.'._.'._.a.G C c k n Z.-X<X<X<X",
"<X<X<X<X$XV.r & y x R &.u.x.n.z.l.M.R.P.:.D x c 4 H Z.%X<X<X<X<X",
"<X<X<X<X<X&XH.l r ; t n 1.;.-.2.2.1.-.E b k y r A J.=X<X<X<X<X<X",
"<X<X<X<X<X<X:X X3.C e 5 ( ^ ^ / [ ! y k 2 e v 3.XX>X<X<X<X<X<X<X",
"<X<X<X<X<X<X<X<X%X|.V.R 1.K ! ~ ) ! , v J V.|.=X<X<X<X<X<X<X<X<X",
"<X<X<X<X<X<X<X<X<X<X;X+X|.W.F.A.S.S.W.L.@X;X<X<X<X<X<X<X<X<X<X<X"
};
