/* XPM */
static char *dbb0351899714ab0f5868fef8c59f7b8s57hOXFIpFBXQOG5[] = {
/* columns rows colors chars-per-pixel */
"16 16 226 2 ",
"   c white",
".  c #FFFEFB",
"X  c #D7D4C1",
"o  c #9A9174",
"O  c #817858",
"+  c #6C644B",
"@  c #6E6443",
"#  c #6D6444",
"$  c #999173",
"%  c #D8D5C1",
"&  c #FDFEFA",
"*  c #FEFFFF",
"=  c #FDFFFE",
"-  c #F4F2EA",
";  c #A8A185",
":  c #5C5235",
">  c #4B3E26",
",  c #766740",
"<  c #7B6F48",
"1  c #796B42",
"2  c #675831",
"3  c #4A3F23",
"4  c #524A31",
"5  c #A8A086",
"6  c #F3F2EA",
"7  c #F3F1E9",
"8  c #857C62",
"9  c #453B20",
"0  c #5B481D",
"q  c #98782A",
"w  c #C9A536",
"e  c #DBB73D",
"r  c #E5C146",
"t  c #E3C04C",
"y  c #B0933C",
"u  c #5F4D21",
"i  c #494024",
"p  c #867F65",
"a  c #F3F2E9",
"s  c #FEFDFA",
"d  c #A49C81",
"f  c #3F331C",
"g  c #6B501A",
"h  c #AE8326",
"j  c #CCA032",
"k  c #DBB439",
"l  c #ECC440",
"z  c #F3CC46",
"x  c #F3CD49",
"c  c #F4CC4B",
"v  c #DCB843",
"b  c #7A6325",
"n  c #382F1E",
"m  c #9C9680",
"M  c #FDFEF9",
"N  c #D8D3C0",
"B  c #52472F",
"V  c #584318",
"C  c #A27821",
"Z  c #BF912A",
"A  c #CDA132",
"S  c #DDB639",
"D  c #EAC33F",
"F  c #EBC644",
"G  c #EEC848",
"H  c #F3CC4B",
"J  c #F4CD4B",
"K  c #DDB943",
"L  c #59461D",
"P  c #3F392A",
"I  c #D5D1BE",
"U  c #938C6F",
"Y  c #473C1D",
"T  c #815F19",
"R  c #AE8023",
"E  c #BF912B",
"W  c #C59B32",
"Q  c #987D2A",
"!  c #77642A",
"~  c #776733",
"^  c #6F5F29",
"/  c #BEA03B",
"(  c #F4CD4A",
")  c #AF9034",
"_  c #342A16",
"`  c #8B856D",
"'  c #5D5638",
"]  c #59481D",
"[  c #976E1A",
"{  c #B08223",
"}  c #B88B29",
"|  c #66501B",
" . c #715E22",
".. c #C0A33C",
"X. c #D2B244",
"o. c #75632B",
"O. c #88742C",
"+. c #F5CE4B",
"@. c #F3CC4A",
"#. c #E2BD45",
"$. c #5D4B21",
"%. c #635A3E",
"&. c #4A4223",
"*. c #5F4B1E",
"=. c #966C1A",
"-. c #B28424",
";. c #936E21",
":. c #524216",
">. c #A98D2F",
",. c #998131",
"<. c #796833",
"1. c #816E32",
"2. c #DBB845",
"3. c #EFC94A",
"4. c #E3BE46",
"5. c #685524",
"6. c #5F562F",
"7. c #483E22",
"8. c #654F1F",
"9. c #986D19",
"0. c #9F7924",
"q. c #29200B",
"w. c #4E411A",
"e. c #988036",
"r. c #C6A644",
"t. c #C9A841",
"y. c #AD9138",
"u. c #CFAE42",
"i. c #E4C046",
"p. c #675524",
"a. c #4F4526",
"s. c #716746",
"d. c #695726",
"f. c #9B701C",
"g. c #A07822",
"h. c #AF882B",
"j. c #917225",
"k. c #605020",
"l. c #7A6830",
"z. c #7F6D38",
"x. c #836F31",
"c. c #C3A43F",
"v. c #DDB946",
"b. c #DBB846",
"n. c #E2BD46",
"m. c #655228",
"M. c #675D42",
"N. c #9F987C",
"B. c #534726",
"V. c #89651F",
"C. c #A47924",
"Z. c #937228",
"A. c #C49B32",
"S. c #D7B13A",
"D. c #D8B741",
"F. c #E5C14B",
"G. c #F3CC4C",
"H. c #E0BC47",
"J. c #B89C3F",
"K. c #AE9137",
"L. c #524527",
"P. c #A29C7D",
"I. c #DEDAC9",
"U. c #62593A",
"Y. c #685522",
"T. c #A77C24",
"R. c #AA842A",
"E. c #AC8A30",
"W. c #D2AE3C",
"Q. c #E7C343",
"!. c #E4C045",
"~. c #CCAB41",
"^. c #DBB946",
"/. c #DBB743",
"(. c #685627",
"). c #6B6241",
"_. c #E1DCCA",
"`. c #FFFEFC",
"'. c #AEA58B",
"]. c #504627",
"[. c #775F25",
"{. c #AF882A",
"}. c #CBA234",
"|. c #D2AE3B",
" X c #CAAB3E",
".X c #BFA13E",
"XX c #C0A03E",
"oX c #E1BD46",
"OX c #D7B442",
"+X c #7F692C",
"@X c #4E4527",
"#X c #B4AC8D",
"$X c #F5F3EC",
"%X c #93896A",
"&X c #5F4F22",
"*X c #9C7E2E",
"=X c #CDA93A",
"-X c #D6B440",
";X c #DAB843",
":X c #DCB846",
">X c #AA8E3A",
",X c #645428",
"<X c #524829",
"1X c #A09671",
"2X c #F8F6ED",
"3X c #F5F3EB",
"4X c #ACA386",
"5X c #635634",
"6X c #524729",
"7X c #76683F",
"8X c #7B6C48",
"9X c #7C6E46",
"0X c #655731",
"qX c #504328",
"wX c #655A39",
"eX c #B4AB89",
"rX c #FEFEFE",
"tX c #E1DAC3",
"yX c #ACA178",
"uX c #948555",
"iX c #87784B",
"pX c #84774A",
"aX c #7B6F47",
"sX c #A89C76",
"dX c #E3DCC4",
"fX c #FFFEFA",
/* pixels */
"      . X o O + @ # $ % & * = = ",
"    - ; : > , < 1 2 3 4 5 6 * = ",
"  7 8 9 0 q w e r t y u i p a * ",
"s d f g h j k l z x c v b n m M ",
"N B V C Z A S D F G H J K L P I ",
"U Y T R E W Q ! ~ ^ / J ( ) _ ` ",
"' ] [ { } |  ...X.o.O.+.@.#.$.%.",
"&.*.=.-.;.:.>.,.<.1.2.3.@.4.5.6.",
"7.8.9.-.0.q.w.e.r.t.y.u.J i.p.a.",
"s.d.f.g.h.j.k.l.z.x.c.v.b.n.m.M.",
"N.B.V.C.Z.A.S.D.F.G.H.J.2.K.L.P.",
"I.U.Y.T.R.E.W.Q.!.~.J.^./.(.)._.",
"`.'.].[.{.}.|. X.XXXoXOX+X@X#X. ",
"  $X%Xi &X*X=X-X;X:X>X,X<X1X2X  ",
"    3X4X5X6X7X8X9X0XqXwXeX2X    ",
"  rX  s tXyXuXiXpXaXsXdXfX      "
};
