/* XPM */
static char *_af637e83d704045c9e4923d5e7bce24SAvaQ5qOU5QCzYK8[] = {
/* columns rows colors chars-per-pixel */
"32 32 17 1 ",
"  c None",
". c black",
"X c #010101",
"o c #020101",
"O c #020102",
"+ c #020202",
"@ c #0D0A0B",
"# c #0E0B0B",
"$ c #110D0D",
"% c #110D0E",
"& c #120D0E",
"* c #120E0F",
"= c #130E0F",
"- c #130F0F",
"; c #130F10",
": c #140F10",
"> c #141011",
/* pixels */
"                                ",
"             ......             ",
"          .          .          ",
"        .      ..      .        ",
"         .            . .       ",
"         .            .         ",
"                                ",
"                           .    ",
"   .                        .   ",
"    ..                    ..    ",
"  .      =:::::>>:::::=      .  ",
"               ::               ",
"               :;               ",
" .             :;               ",
" .             ::             . ",
" . .          .==.......    . . ",
" . .          .==.......    . . ",
" .             :=             . ",
" .             :;               ",
"               :;               ",
"               :;               ",
"  .            :;            .  ",
"    ..         :;         .     ",
"   .           :;           .   ",
"               >;          .    ",
"               ==               ",
"         .    .=@     .         ",
"         .     ..     . .       ",
"        .      .       .        ",
"          .          .          ",
"             ......             ",
"                                "
};
