/* XPM */
static char *_fd5ac5b65884e88b990be3b640a142eSqLzFPrkY6pNgjUb[] = {
/* columns rows colors chars-per-pixel */
"64 64 246 2 ",
"   c #010101",
".  c #0A0402",
"X  c #070609",
"o  c #0B0B0A",
"O  c #130C05",
"+  c #180C05",
"@  c #140E0C",
"#  c #0E120B",
"$  c #181405",
"%  c #14130C",
"&  c #1B130C",
"*  c #1B1A0C",
"=  c #0C0E11",
"-  c #150D12",
";  c #1C0E14",
":  c #190C18",
">  c #141313",
",  c #1A1313",
"<  c #151A15",
"1  c #1B1A14",
"2  c #15141A",
"3  c #1B151C",
"4  c #171919",
"5  c #1C1A1B",
"6  c #221A0B",
"7  c #27190B",
"8  c #2B1417",
"9  c #221B14",
"0  c #251915",
"q  c #22161C",
"w  c #221A1B",
"e  c #172111",
"r  c #27210D",
"t  c #39290D",
"y  c #262315",
"u  c #2C2213",
"i  c #2B2817",
"p  c #332413",
"a  c #342A15",
"s  c #372A18",
"d  c #342D1C",
"f  c #3A341B",
"g  c #3C321C",
"h  c #1D1623",
"j  c #1E1922",
"k  c #231421",
"l  c #211921",
"z  c #2B282A",
"x  c #352B24",
"c  c #3C3423",
"v  c #383528",
"b  c #3A3632",
"n  c #422D0E",
"m  c #47320D",
"M  c #452D14",
"N  c #483513",
"B  c #43341B",
"V  c #443B1D",
"C  c #533B16",
"Z  c #463925",
"A  c #493C30",
"S  c #3E4038",
"D  c #5B430F",
"F  c #4F461C",
"G  c #5A471B",
"H  c #66490D",
"J  c #70500F",
"K  c #684B16",
"L  c #724E12",
"P  c #755718",
"I  c #4B4324",
"U  c #4A442A",
"Y  c #564727",
"T  c #544C2B",
"R  c #5C5325",
"E  c #5C542C",
"W  c #47443B",
"Q  c #524A38",
"!  c #5A5635",
"~  c #654D27",
"^  c #695729",
"/  c #755B29",
"(  c #645A35",
")  c #6B5D32",
"_  c #635A3A",
"`  c #715934",
"'  c #69602C",
"]  c #796626",
"[  c #6A6337",
"{  c #776737",
"}  c #7B723D",
"|  c #453E44",
" . c #454344",
".. c #484546",
"X. c #44434A",
"o. c #594C41",
"O. c #5B5447",
"+. c #4C4558",
"@. c #6A5B44",
"#. c #5E6044",
"$. c #686544",
"%. c #766946",
"&. c #7E7548",
"*. c #6B6256",
"=. c #776A53",
"-. c #7D775D",
";. c #6F6B65",
":. c #845C1A",
">. c #84631B",
",. c #976818",
"<. c #9B6D1A",
"1. c #96741A",
"2. c #9D7319",
"3. c #A06E19",
"4. c #A3761D",
"5. c #A9771E",
"6. c #A5791D",
"7. c #846522",
"8. c #88682A",
"9. c #8C7228",
"0. c #977627",
"q. c #886A32",
"w. c #897639",
"e. c #967A36",
"r. c #A77B21",
"t. c #A57A26",
"y. c #AD7D22",
"u. c #826C45",
"i. c #867847",
"p. c #937C45",
"a. c #897C55",
"s. c #857B67",
"d. c #AF811F",
"f. c #928336",
"g. c #988439",
"h. c #AD8123",
"j. c #A6872B",
"k. c #B28325",
"l. c #B68827",
"z. c #B98927",
"x. c #B48529",
"c. c #B58B2A",
"v. c #BB8D29",
"b. c #BE922B",
"n. c #A98C36",
"m. c #B38A34",
"M. c #AE9134",
"N. c #B79836",
"B. c #BCA93D",
"V. c #C3942C",
"C. c #C79A2D",
"Z. c #C69A2E",
"A. c #C69A31",
"S. c #C29A37",
"D. c #CA9D32",
"F. c #CDA333",
"G. c #C8AB35",
"H. c #C3A33C",
"J. c #C9A639",
"K. c #C5AB3D",
"L. c #CAAA3C",
"P. c #D2A635",
"I. c #D6AB37",
"U. c #D3AC36",
"Y. c #D4AB3A",
"T. c #D6B139",
"R. c #DBB639",
"E. c #DCB43A",
"W. c #E4BD39",
"Q. c #E3BD3C",
"!. c #E6C23E",
"~. c #EAC43E",
"^. c #8B854A",
"/. c #9B8B48",
"(. c #98924A",
"). c #8C8A55",
"_. c #968A58",
"`. c #9B9658",
"'. c #A48B45",
"]. c #AC9845",
"[. c #B59B46",
"{. c #A69A5C",
"}. c #B39355",
"|. c #BCA346",
" X c #A7A558",
".X c #BBA755",
"XX c #968A7D",
"oX c #A69C67",
"OX c #A9936E",
"+X c #B9AB62",
"@X c #B4A66C",
"#X c #B3A96A",
"$X c #C29F48",
"%X c #C5AB42",
"&X c #C7A847",
"*X c #CAAC43",
"=X c #D1AD48",
"-X c #C9B249",
";X c #D8B648",
":X c #CBAD51",
">X c #D8AF55",
",X c #CCB456",
"<X c #D5B854",
"1X c #E3BC45",
"2X c #C6AD69",
"3X c #CAB568",
"4X c #D5B765",
"5X c #C7BA77",
"6X c #D1BD73",
"7X c #DBC150",
"8X c #E6C343",
"9X c #EBC441",
"0X c #EECB44",
"qX c #E5C44B",
"wX c #EDCB4B",
"eX c #F2CB46",
"rX c #F2CB4A",
"tX c #EDD144",
"yX c #E5C557",
"uX c #ECCB53",
"iX c #F2CB52",
"pX c #D2C36F",
"aX c #D6C675",
"sX c #E5C96E",
"dX c #A29C88",
"fX c #B7AD89",
"gX c #CBB884",
"hX c #C1BBA1",
"jX c #D2C68C",
"kX c #DCCB89",
"lX c #D9CB97",
"zX c #DED299",
"xX c #E6D08E",
"cX c #DAD2A6",
"vX c #DDD5B7",
"bX c #E3DAA8",
"nX c #E5DCB5",
"mX c #E9E1BA",
"MX c #E7DBC4",
"NX c #EFE9CE",
"BX c #F1EDE3",
"VX c #F8F4E3",
"CX c #FAFBED",
"ZX c #FCFDF5",
"AX c #F7FEF9",
"SX c #FEFFFE",
/* pixels */
"SXSXSXSXSXSXSXSXSXSXSXSXSXSXSXSXSXSXSXSXSXSXSXSXZXBXzX,X-XK.%XL.L.*XL.&X:XzXNXZXSXSXSXZXSXSXSXSXSXSXAXSXSXSXAXSXSXSXAXSXSXSXAXSX",
"SXSXSXSXSXSXSXSXSXSXSXSXSXSXSXSXSXSXSXSXSXZXaX*X%Xw.Q W W X...+.X...W z * i { -XK.kXCXZXZXSXSXSXSXSXSXSXSXSXSXSXSXAXSXSXSXSXSXSX",
"SXSXSXSXSXSXSXSXSXSXSXSXSXSXSXSXSXSXAXbXB.'.p z b oX*.| X...X.i... X$.z oX$.w 9 5 u /.*XbXSXSXSXSXSXSXSXAXSXSXSXSXSXAXSXSXSXSXSX",
"SXSXSXSXSXSXSXSXSXSXSXSXSXSXSXSXZXkX-XT % + $.Y v } #XW ! ..=._...../.d %.).* %.* u %.5 R %XkXSXSXSXSXAXSXSXSXSXSXSXSXSXSXSXAXSX",
"SXSXSXSXSXSXSXSXSXSXSXSXSXSXSXnXL.Z > % I q ; a.f O.oXX.Q X.| X.....| z i.u c 9 1 ^.' 5 i r I K.nXZXSXSXSXSXSXSXSXAXSXSXSXSXSXSX",
"SXSXSXSXSXSXSXSXSXSXSXSXSXZX%X] > %.{ % 7 %.q ).b A *.dXMXvXjXgX@X@XOX_._ c 1 w < &.[ 9 a.9 * 9 { &XZXSXSXSXSXSXSXSXSXSXAXSXAXSX",
"SXSXSXSXSXSXSXSXSXSXSXSXmXK.% { M w _.B & & 8 =.dX/.7.L f 7 .     . 7 t D P >.{ Y 6 < Z Y 9 5 ' 3 * K.mXAXSXSXSXSXSXSXAXSXAXSXSX",
"SXSXSXSXSXSXSXSXSXSXSX6Xg.2 > `.{., @.- x p.9.] + @ T w.].&X:X  . 4XsXkXnXXXy O K J ^ a 1 1 {.3 k i.w /.6XSXAXSXAXSXSXSXSXSXSXSX",
"SXSXSXSXSXSXSXSXSXAX,XR - p ( % &.> r / 9.N O ^ n.I.I.Q.Q.9X~.eXuXeXeXrXrXrXiXsXfX9 s J K u 5 5 +X{.4 5 ~ 3XZXSXSXSXSXSXSXSXSXSX",
"SXSXSXSXSXSXSXSXSX-XV v , ).! 2 - G 0.f O ] H.P.U.P.W.Q.Q.!.9X9XeXrXeXeXtXrXrXiXrXuX}.1 p H D * ^.E 5 9 I U :XSXSXSXSXSXAXSXAXSX",
"SXSXSXSXSXSXSXSX:XZ > 7 ^.% x * P 8..   0.C.F.U.U.I.E.Q.Q.8X9XeXeXeXrXeXrXeXrXrXrXrXrX:X    Y H y <  Xi., i A ,XAXSXSXAXAXSXSXSX",
"SXSXSXSXSXSXZX6XE o , (.I > a 2.u n 0.y.D.F.D.P.U.I.Q.W.W.1X9X9XeXrXtXeXeXrXeXrXrXrXrXrX>X&XC 6 H a 9 5 < e R R 6XZXSXSXSXSXSXSX",
"SXSXSXSXSXSXnXp.@ ; u.- ; t j.. K b.b.V.A.D.F.U.U.T.E.Q.W.9XeXeXeXeXrXeXrXeXrXrXrXrXrXrXrXiXrX8.. J t 4 #Xw w < /.bXSXSXSXSXAXSX",
"SXSXSXSXSXCXL.% > 2 d , n y.. >.z.z.v.C.C.D.D.P.U.T.E.Q.W.1X9XeXeXrXeXeXeXrXrXrXrXrXrXrXrXeXrXrXn.. J n w l l Z 9 %XCXSXSXSXSXSX",
"SXSXSXSXSX%X$ ^.].> > p c.. 8.k.z.z.v.V.A.D.F.P.U.I.E.Q.W.~.eX~.eXeXeXrXrXeXrXrXrXrXrXrXrXrXrXrXwX&X. L t 5 a.y 5 1 %XSXSXAXSXSX",
"SXSXSXSXzX) = y g #.r j.. >.d.k.z.c.V.V.C.D.F.U.U.I.E.Q.W.~.~.eXeXeXeXeXeXrXrXrXrXrXrXrXrXrXrXrXeXwXN.. L r j 5 5 5 ' lXSXSXSXSX",
"SXSXSXSXK.& u.T > - 0.p H y.k.l.z.b.V.V.C.D.F.U.U.T.E.W.!.!.~.eXeXeXtX0XrXrXrXrXrXrXrXrXrXrXrXrXrXrXrXq.7 H 3 Q 5 5 q K.SXSXSXSX",
"SXSXSXpXp , ^.6 % C e.t t.y.5.l.z.v.V.V.V.D.F.P.U.T.E.Q.!.~.~.eXeXrXrXeXrXrXtXrXrXrXrXrXrXrXrXrXrXrXeXeXM G m 9 z 5 9 g pXSXSXSX",
"SXSXSX%X, ; : ; 0 b.  r.4.h.k.l.z.v.b.V.C.D.F.P.U.T.T.W.W.~.~.~.eXeXeXeXrXeXrXrXrXrXrXrXrXrXrXrXrXrXeXrXrX  L 7 5 5 5 5 =XSXSXSX",
"SXSXkXg oXT & , 9.V   2.r.y.h.l.z.b.b.V.C.F.F.P.U.T.E.Q.!.~.~.eXeXeXrXtXeXrXrXrXrXrXrXrXrXrXrXrXrXrXrXrX0XX 8 H 5 1 5 * Z kXSXSX",
"SXAXK.# , > U 7 b.% L 4.4.h.y.l.z.z.V.V.D.F.P.P.Y.E.E.Q.Q.~.~.0XeXeXeXrXeXrXrXwXuXeXrXrXrXeXeXrXrXrXrXrXwX0.O P 0 T y w < K.SXSX",
"SXVXw.! _.U % 9.C >.2.r.r.y.k.l.z.V.V.V.C.F.P.P.Y.T.E.Q.Q.[.Y > 3 w 3 5 2 X O n.uXrXrXrXrXrXrXrXrXrXrXeXeXrX=Xp H 5 5 r e w.VXSX",
"SX6XO % _.* & A.. <.<.4.r.r.k.l.z.V.V.V.C.F.F.P.T.T.&X+ X o > 2 2 4 j 5 4       . uXeXrXrXrXrXrXrXrXrXrXeXeXeX+ P 9 5 w 1 1 pXSX",
"SXL.< % $ % V n.H <.2.6.6.y.k.l.x.z.V.V.C.D.P.P.M..     X o - 2 2 | ;.;.b         O wXeXwXrXrXrXrXrXrXrXwXiXeXe.K n y w 5 h K.SX",
"SX&X[ - 1 > N.9 1.1.<.2.6.h.k.z.v.V.V.V.C.D.P.6         % =.3XuXwXrXwXeXwXuX3XO     wXrXrXrXrXrXrXrXrXrXrXrXrXwXO P 3 i , ) .XZX",
"MX^ % % E O G.. ,.1.2.4.6.y.k.z.v.v.V.V.D.H.X       y ].1X9X~.eXtXeXeXrXrXrXwX_     wXrXrXrXrXrXrXrXrXrXrXrXrXrX. P 1 1 w y { MX",
"kX* #X% % 6 &XM ,.<.2.4.6.h.k.l.z.v.V.V.C.        e.E.Q.!.~.0X0XeXeXeXrXeXiX>X      rXeXrXrXrXrXrXrXrXrXrXrXrXiX) :.7 5 5 v y kX",
":X< y f U ^ ].:.,.2.2.2.6.y.k.l.z.z.V.V.p     O B.E.E.1X!.!.0X0XeXeXwXrXwX^       ) rXrXrXrXrXrXrXrXeXiXrXrXrXwX=X/ N w.#Xw.q -X",
"K.% % > > j.^ ,.,.2.2.6.6.d.k.z.z.v.V.A.      B.U.T.R.!.9X9X0X0XeXeXwXe..       Z wXrXrXrXrXrXrXrXrXrXrXrXrXrXrXrXm K i 5 < 5 %X",
"K., # i.2 -XU <.,.<.2.6.d.h.k.z.y.V.V.~     ] U.U.E.R.Q.8X~.0X0X<Xc 2 3 X     a.eXrXrXrXrXrXrXrXrXrXrXrXrXrXrXrXrXu >.9 #XoX5 *X",
"%X> %.# - Y.$ 7 <.<.3.6.6.h.k.z.V.z.V.O     P.U.U.E.E.Q.qXM.p < > 5 j 3 . O.<XiXrXrXrXrXrXrXrXrXrXrXrXrXrXrXrXiXB O >.1 &.{.1 K.",
"%X# > > > U.    <.<.3.6.6.h.k.z.z.V.V.      P.P.-Xq.y X = % > 2 5 3 5 dXsXiXrXiXiXrXrXrXrXrXrXrXrXrXrXrXrXrXeXwX  . >.1 4 w w L.",
"%X, U /., T.. . <.2.2.6.6.h.h.z.l.v.C.X             . X X - 2 , -.xXiXeXrXrXrXrXrXrXrXrXrXrX$XiXrXrXrXrXrXrXrXiX  . >.4 (.< r K.",
"J.> > > > E.7 H ,.2.2.6.d.h.k.c.v.b.b.G               . v a.4X9XeXrXrX1XrXrXrXrXiXrXrXrXw.O &XrXrXrXrXrXrXrXrXtXe.$ 7.* w i.5 *X",
"K.> 0 2 > <XR ,.,.<.2.6.6.h.k.z.v.V.V.A.      * V w.N.1X1XeXeXeXeXrXrXeXrXrXrXrXeX<Xu   u yXrXrXrXrXrXrXrXrXrXrXrXs 7.1 I 5 5 K.",
"K., O y U n.] ,.,.2.2.2.6.h.h.l.v.v.b.V.L       f T.Q.W.1X1XeXeXeXrXrXrXrXrX<XZ       / 0XeXrXrXrXrXrXrXrXrXrXeXuXC P =.A 6 9 K.",
"aX, ; & > ^ *XP ,.2.4.6.6.h.x.z.v.b.C.C.C.N         * g.yX9X0XrXeXwX[.) . X     . c =XrXwXrXrXrXrXrXrXrXrXrXrXrX.X7.I h w 0 * pX",
"bXY ( {.oX# ;Xs <.<.2.6.d.h.h.l.c.V.Z.V.D.F.^ .       X o > < < 5 5 5 o . .   x ].iXrXrXiXiXrXiXrXrXrXrXrXeXrXrXY >.& i.w b T bX",
"ZXf.Y #X$ % R.. 4.<.4.4.5.x.h.F @ v.b.A.D.P.Y.S.Y . X X = > 1 w h 5 w o . *.2XrXrXrXrXrXwXiXeXc Z rXrXrXrXrXrXrX. 0.3 6 Z Y g.CX",
"AXK.- > Q i ,XV ,.<.4.5.r.h.p c.M.e.m.A.C.P.P.I.I.;X].p.E o.Q o.=.s.bXxXuXeXrXrXrXrXrXrXrXrXiXrXtX_ [.rXrXrXrXiXt q.q 1 q 3 G.SX",
"ZX-X: aXp > Z ;XM 2.4.5.y.y.x.6 q.t.V.A.A.P.P.Y.I.Q.Q.Q.1X9X0XeXwXwXrXrXrXrXrXrXrXrXrXrXrXuXeX& { wX9.rXrXrXrX_ 9.s _.w.oXy -XAX",
"SXnX( > , , - 8XO 2.4.t.y.y.x.v.a e.p A.D.F.P.I.I.E.Q.Q.~.0X0XeXeXeXrXrXrXrXrXrXrXrXrXrXeXa [ ,XeXe.rXrXrXrXeX. 1.h h 0 [ ! nXSX",
"SXSX&X# &.T ~ e.0.~ 4.5.y.x.x.x.z.j.6 ] C.P.P.P.I.Q.W.W.1X0XeXeXeXeXeXrXrXrXrXrXrXrXrX` L.[ iXn.rXrXrXrXrXeX/.K K _ 7 k e B.AXSX",
"SXAX,X% u.< # > 1X. 7 5.y.y.x.x.m.e.Z., P.P.I.P.E.Q.1XW.~.eXeXeXeXeXrXrXrXrXrXrXrXrXrXiXI |.w.iXrXrXrXrXeXg . 0.5 v `.i.5 ,XSXSX",
"SXSXVX].> % `.U w.g.  y.5.k.c.z.z.N.u A.s B U.U.I.Q.1X1X9X0X0XeXeXeXrXrXrXrXrXrXiX$XF $ uXI tXrXrXrXrXrXrX  / ~ b x 3 1 |.VXSXSX",
"SXSXAX%X- _ ).{ , !.$ t.h.h.x.z.c.b.C.+ S.Y P.U.N Q.Q.Q.~.0XeXeXwXeXeXrXrXrXrXrXyX^ sXeXB rXiXrXrXrXrXiXyX& j.3 `.:X`.3 B.AXSXSX",
"SXSXSXvX[., , > U a 7X  h.k.l.l.b.b.V.m.{ G.P.B.*X;XQ.Q.9X0XeXeXeXrXeXrXrXiXiX/ + rX& eXiXrXrXrXrXrXrXeX  t.a 1 5 U c [.NXSXSXSX",
"SXSXSXSXB.0 y (.U O ].0.6 k.l.z.c.b.V.V.D.F.F.d j.=X;X8X!.0X0XeXrXrXrXeX].C iX* yX4XuXiXiXrXrXrXrXrXeXs P ] 4 _.&.5 p $XZXSXZXSX",
"SXSXSXSXBXL.@ } @ & # 7XD B x.l.v.b.A.D.F.F.S.Y.E.] W.1X`.w.] eXZ ^ <X/ p tXC 7 rX<XeXrXrXrXrXrXeXrXR N j.j 1 e aX5 G.CXAXSXZXSX",
"SXSXSXSXSX_.e.2 U ).5X: qXD N z.b.b.A.A.F.F.U.I.n.;XR.j.8X8XwX<X'.. uXwXB rXeX+ rXrXtXrXrXrXrXrXrX~ n m.w {.i 5 1 g.2XSXSXSXSXSX",
"SXSXSXSXSXSXN.Z _., ; 1 ; 8XF p v.b.C.D.F.P.U.Y.T.E.Q.!.^ 8.wX. 0X;XZ ].uXiX$Xq.rXrXrXrXrXrXrXwXc m j.q 3 * i `.V K.SXSXSXSXSXSX",
"SXSXSXSXSXSXBXL.> , - @ $., qXP . b.C.C.F.F.P.Y.E.Q.Q.Q.9X0XeXeX0XeXrXrXrXrXrXrXrXrXrXrXtXeXiX. K M.l $.R c h 9 P.VXSXSXSXSXZXSX",
"SXSXSXSXSXSXZXhXL.@ {.I > &.> |.M.% I Y F.P.U.I.E.Q.Q.Q.9XrXeXeXeXeXeXeXeXrXrXrXrXrXrXrX/ ! @ 1.w.9 B w (. X5 H.bXZXSXSXSXSXSXSX",
"SXSXSXSXSXSXSXSX_.L.> , ( g z % I 8XK   ^ F.P.I.I.E.Q.Q.9XeXeXrXeXeXeXeXeXrXrXrXrXrXiX]   G N.Z k $.1 ) 5 e Y.gXSXSXSXSXSXSXSXSX",
"SXSXSXSXSXSXSXSXSXa.K.% `.- 1 T _ + B.J.F . n.Y.E.E.Q.9X9XrXrXrXeXeXeXeXeXrXrXwXwX:XX C j.g.5 $.! 1  X).w &X+XSXSXSXSXSXSXSXSXSX",
"SXSXSXSXSXSXSXSXSXSX_.J.x 2 3 g , 2 & q -XJ.{ > a B.1XQ.~.eXqX0.0.wXeXeXrXrX*Xg , %.n.[.9 Z y E B 5 5 f L.2XSXSXSXSXSXSXSXSXSXSX",
"SXSXSXSXSXSXSXSXSXSXSXfXH.w.> x > oX& : 8 & e.qX$X_...o . Z E     _ U . o O.OX}.*Xq.6 w k (.@.9 _ 4 w.L.lXSXSXSXSXSXSXSXSXSXSXSX",
"SXSXSXSXSXSXSXSXSXSXSXSXMXj.-X> T I + U _.- l z x i.<X1X>X4X6XkXkXxXsX>X=X.X/ * 5 g x i.5 5 U 1 5 :XS.NXSXSXSXSXSXSXSXSXSXSXSXSX",
"SXSXSXSXSXSXSXSXSXSXSXSXSXZXw.J.g.> & 3Xu > ^.z W {.A X.W .. . .| ....z w 1 ).q 5X9 w w.$.5 * g.J.[.ZXSXSXSXSXSXSXSXSXSXSXSXSXSX",
"SXSXSXSXSXSXSXSXSXSXSXSXSXSXSXvXj.K.q.@ & T 4 z A /.| | ).+.a...a.oXX.f.q 5 E 9 0 w w q j i.L.N.MXSXSXSXSXSXSXSXSXSXSXSXSXSXSXSX",
"SXSXSXSXSXSXSXSXSXSXSXSXSXSXSXSXSXjXj.J.].r % z {.#X| %...Q +.O.%.(.| i.l 3 U $.5 5 d [.K.b.lXSXSXZXSXSXSXSXSXSXSXSXSXSXSXSXSXSX",
"SXSXSXSXSXSXSXSXSXSXSXSXSXSXSXSXSXSXSXcXM.H.K.[.[ A | Q A X.oXX.O.).S x a 5 5 T [.*XH.M.vXZXSXZXSXSXSXSXSXSXSXSXSXSXSXSXSXSXSXSX",
"SXSXSXSXSXSXSXSXSXSXSXSXSXSXSXSXSXSXSXSXSXZXjXH.P.U.*XK..X'.i.p.i.e.'.:X%X*XK.S.m.gXZXZXSXZXSXSXSXSXSXSXSXSXSXSXSXSXSXSXSXSXSXSX",
"SXSXSXSXSXSXSXSXSXSXSXSXSXSXSXSXSXSXSXSXSXSXSXZXAXVXzX<X1X9X0XqXyXkX5X2X5XlXVXZXZXSXSXSXSXSXSXSXSXSXSXSXSXSXSXSXSXSXSXSXSXSXSXSX"
};
