/* XPM */
static char *bc4ea076dddb4b8ced06d5267f9d4fd1rkNbNw0Cl9wgtnsu[] = {
/* columns rows colors chars-per-pixel */
"16 16 10 1 ",
"  c None",
". c black",
"X c #070506",
"o c #070606",
"O c #0D0A0A",
"+ c #0D0A0B",
"@ c #0E0B0C",
"# c #110D0E",
"$ c #130E0F",
"% c #130F10",
/* pixels */
"                ",
"                ",
"                ",
"                ",
"                ",
"     $$%%$$     ",
"       $        ",
"       ++ ..    ",
"       @+  .    ",
"       $        ",
"       $        ",
"       $        ",
"       $$       ",
"       XX       ",
"                ",
"                "
};
