/* XPM */
static char *_7d8bf772c4e477182fe44b884e5f2afvBoAtpbsMqQqO2c4[] = {
/* columns rows colors chars-per-pixel */
"64 64 24 1 ",
"  c None",
". c black",
"X c #010000",
"o c #010001",
"O c #010101",
"+ c #090707",
"@ c #0B0809",
"# c #0C090A",
"$ c #0D0A0A",
"% c #0D0A0B",
"& c #0E0A0B",
"* c #0E0B0C",
"= c #0F0B0C",
"- c #0F0C0C",
"; c #0F0C0D",
": c #100C0D",
"> c #100D0D",
", c #110D0E",
"< c #120D0E",
"1 c #120E0F",
"2 c #130E0F",
"3 c #151011",
"4 c #161012",
"5 c #161112",
/* pixels */
"                                                                ",
"                                                                ",
"                           ..........                           ",
"                       .......    .......                       ",
"                    ....                ....                    ",
"                  ...         ...          ...                  ",
"                ...           ...            ..                 ",
"               ..             ...             ...               ",
"              ..   .                        .   ..              ",
"            ..    ...                      ...   ..             ",
"           ..     ...                      ...     ..           ",
"          ..       .                        .       ..          ",
"         ..                                          .          ",
"         .                                            .         ",
"        ..                                            ..        ",
"       ..                                              ..       ",
"       .                                                .       ",
"      .                                                 ..      ",
"     ..  ..                                         ...  .      ",
"     .  ....      &::::::::::::::::::::::::::=      ...  ..     ",
"    ..    .       :33333333333333333333333333:       .    .     ",
"    ..            233333333333333333333333333:            ..    ",
"    .             &-========::233::&:&&:&::&-&             .    ",
"   ..                         233:                         .    ",
"   ..                         233:                         ..   ",
"   .                          :33:                          .   ",
"   .                          233:                          .   ",
"   .                          :33:                          .   ",
"  ..                          :33:                          .   ",
"  ..                          233:         ...              ..  ",
"  .. ...                   ...:33-..............        ..  ..  ",
"  .. ...                   ...:33&................      ..  ..  ",
"  .. ...                   ...:33&................      ..  ..  ",
"  ..                          :33&         ....             ..  ",
"  ..                          :33:         ..               ..  ",
"  ..                          233-                          .   ",
"   .                          :33:                          .   ",
"   .                          233:                          .   ",
"   .                          233:                          .   ",
"   ..                         233:                         ..   ",
"   ..                         :33:                         .    ",
"    .                         233:                         .    ",
"    ..                        :33:                        ..    ",
"     .   ..                   233:                   ..   .     ",
"     .  ....                  233:                  ...  ..     ",
"     ..  ..                   233:                   ..  .      ",
"      ..                      :33:                      ..      ",
"       .                      233:                      .       ",
"       ..                     :33:                     ..       ",
"        ..                    233:                    ..        ",
"         .                    233:                   ..         ",
"         ..                   :33-                   .          ",
"          ..      .         ..=23&.         .       .           ",
"           ..     ...        .&:-@.        ...     .            ",
"            ...   ...         ....         ...   ..             ",
"              ..   .          ....          .   ..              ",
"               ..              ..             ...               ",
"                 ..            ..            ..                 ",
"                  ...                     ....                  ",
"                    ....               ....                     ",
"                       ..................                       ",
"                           .........                            ",
"                                                                ",
"                                                                "
};
